<?xml version="1.0" standalone="no"?>
<!DOCTYPE svg PUBLIC "-//W3C//DTD SVG 20010904//EN"
 "http://www.w3.org/TR/2001/REC-SVG-20010904/DTD/svg10.dtd">
<svg version="1.0" xmlns="http://www.w3.org/2000/svg"
 width="585.000000pt" height="584.000000pt" viewBox="0 0 585.000000 584.000000"
 preserveAspectRatio="xMidYMid meet">

<g transform="translate(0.000000,584.000000) scale(0.100000,-0.100000)"
fill="#000000" stroke="none">
<path d="M2950 5759 c-471 -34 -867 -178 -981 -357 -81 -128 -62 -233 82 -434
168 -235 270 -406 375 -623 74 -155 146 -337 183 -462 12 -40 25 -73 29 -73 4
0 36 8 72 19 253 72 526 46 765 -73 234 -117 394 -282 505 -519 21 -45 44
-103 50 -130 7 -26 16 -49 20 -52 12 -7 135 90 228 179 442 424 623 1041 456
1553 -113 347 -352 613 -709 789 -321 158 -647 213 -1075 183z"/>
<path d="M1310 3719 c-242 -27 -496 -120 -688 -251 -98 -67 -264 -232 -324
-324 -168 -252 -236 -507 -225 -839 10 -277 65 -494 191 -745 304 -604 768
-1042 1040 -981 70 16 137 59 174 113 17 25 66 119 110 209 182 379 385 685
628 947 l96 103 -74 77 c-178 186 -278 392 -308 632 -14 113 -13 177 5 290 30
204 126 409 260 558 l45 50 -72 30 c-273 113 -591 161 -858 131z"/>
<path d="M2851 3570 c-293 -62 -520 -268 -611 -555 -31 -99 -38 -273 -16 -386
46 -224 211 -441 415 -544 129 -64 199 -80 361 -80 162 0 232 16 361 80 204
103 369 320 415 544 22 113 15 287 -16 386 -82 261 -273 451 -535 535 -79 25
-294 37 -374 20z"/>
<path d="M4020 2433 c-21 -66 -108 -226 -160 -294 -212 -281 -574 -449 -918
-425 -101 7 -201 26 -271 50 -24 9 -46 16 -48 16 -3 0 -3 -80 0 -177 9 -346
96 -626 276 -895 204 -304 483 -501 831 -585 108 -26 422 -26 535 1 191 44
372 118 551 226 371 225 777 749 925 1195 30 92 33 110 34 230 0 127 -1 131
-31 185 -36 64 -100 113 -178 135 -28 8 -107 19 -176 25 -511 44 -873 135
-1293 324 -32 14 -59 26 -62 26 -2 0 -9 -17 -15 -37z"/>
</g>
</svg>
